<svg width="64" height="64" viewBox="0 0 64 64" xmlns="http://www.w3.org/2000/svg">
  <!-- ピンの影 -->
  <ellipse cx="32" cy="56" rx="14" ry="5" fill="#B0BEC5" opacity="0.3"></ellipse>
  <!-- ピン -->
  <path d="M32 8a18 18 0 0 0-18 18c0 11.5 16.5 30 17.4 31.1a2 2 0 0 0 3.2 0C33.5 56 50 37.5 50 26A18 18 0 0 0 32 8z" fill="#2196F3" stroke="#1976D2" stroke-width="2"></path>
  <!-- ホテルの建物 -->
  <rect x="22" y="24" width="20" height="14" rx="3" fill="#fff" stroke="#1976D2" stroke-width="1.5"></rect>
  <!-- 窓 -->
  <rect x="26" y="28" width="4" height="4" rx="1" fill="#BBDEFB"></rect>
  <rect x="34" y="28" width="4" height="4" rx="1" fill="#BBDEFB"></rect>
  <rect x="26" y="34" width="4" height="4" rx="1" fill="#BBDEFB"></rect>
  <rect x="34" y="34" width="4" height="4" rx="1" fill="#BBDEFB"></rect>
  <!-- 花火 -->
  <circle cx="32" cy="16" r="2" fill="#FFC107"></circle>
  <g stroke="#FFC107" stroke-width="1.2">
    <line x1="32" y1="10" x2="32" y2="14"></line>
    <line x1="32" y1="18" x2="32" y2="22"></line>
    <line x1="26" y1="16" x2="30" y2="16"></line>
    <line x1="34" y1="16" x2="38" y2="16"></line>
    <line x1="29" y1="13" x2="27" y2="11"></line>
    <line x1="35" y1="13" x2="37" y2="11"></line>
    <line x1="29" y1="19" x2="27" y2="21"></line>
    <line x1="35" y1="19" x2="37" y2="21"></line>
  </g>
</svg>
